<?xml version="1.0" standalone="no"?>
<!DOCTYPE svg PUBLIC "-//W3C//DTD SVG 20010904//EN"
 "http://www.w3.org/TR/2001/REC-SVG-20010904/DTD/svg10.dtd">
<svg version="1.0" xmlns="http://www.w3.org/2000/svg"
 width="200.000000pt" height="200.000000pt" viewBox="0 0 200.000000 200.000000"
 preserveAspectRatio="xMidYMid meet">
<metadata>
Created by potrace 1.11, written by Peter Selinger 2001-2013
</metadata>
<g transform="translate(0.000000,200.000000) scale(0.100000,-0.100000)"
fill="#000000" stroke="none">
<path d="M320 1981 c-86 -28 -133 -56 -190 -112 -58 -59 -93 -122 -115 -206
-22 -82 -22 -1252 -1 -1328 19 -68 39 -115 48 -115 4 0 8 -6 8 -13 0 -23 109
-126 162 -153 106 -54 97 -53 753 -54 425 0 629 3 666 11 133 28 246 120 308
249 l36 75 2 645 3 645 -26 75 c-14 41 -30 77 -35 78 -5 2 -9 10 -9 17 0 21
-106 123 -152 146 -118 60 -92 58 -776 58 -573 0 -632 -2 -682 -18z"/>
</g>
</svg>
